# xmcd
#
# Track frame offsets: 
#        150
#        8924
#        19760
#        31117
#        39407
#        49912
#        58932
#        69767
#        78637
#        86962
#        96962
#        107268
#        118783
#        128710
#        137768
#        147448
#        155659
#        167391
#
# Disc length: 2346 seconds
#
# Revision: 0
# Processed by: cddbd v1.5.2PL0 Copyright (c) Steve Scherf et al.
# Submitted via: ExactAudioCopy v0.99pb4
#
DISCID=ed092812
DTITLE=Johnny Cash - The Man on the Hill - (FabFour Box CD4)
DYEAR=1959
DGENRE=Country
TTITLE0=Swing Low Sweet Chariot
TTITLE1=Snow in His Hair
TTITLE2=Lead Me Father
TTITLE3=I Call Him
TTITLE4=These Things Shall Pass
TTITLE5=He'll Be My Friend
TTITLE6=God Will
TTITLE7=Drink to Me
TTITLE8=Five Feet High and Rising
TTITLE9=The Man on the Hill
TTITLE10=Hank and Joe and Me
TTITLE11=Clementine
TTITLE12=The Great Speckled Bird
TTITLE13=I Want to Go Home
TTITLE14=The Caretaker
TTITLE15=Old Apache Squaw
TTITLE16=Don't Step on Mother's Roses
TTITLE17=It Could Be You
EXTD=
EXTT0=
EXTT1=
EXTT2=
EXTT3=
EXTT4=
EXTT5=
EXTT6=
EXTT7=
EXTT8=
EXTT9=
EXTT10=
EXTT11=
EXTT12=
EXTT13=
EXTT14=
EXTT15=
EXTT16=
EXTT17=
PLAYORDER=
